<?xml version="1.0" encoding="utf-8"?>
<!-- Generator: Adobe Illustrator 23.0.6, SVG Export Plug-In . SVG Version: 6.00 Build 0)  -->
<svg version="1.1" id="logo" xmlns="http://www.w3.org/2000/svg" xmlns:xlink="http://www.w3.org/1999/xlink" x="0px" y="0px"
	 width="626px" height="175px" viewBox="0 0 626 175" style="enable-background:new 0 0 626 175;" xml:space="preserve">
<style type="text/css">
	.st0{fill:#6400FF;}
</style>
<path id="black-plate" d="M416.6,174.4c-9.2,0-16.7-7.5-16.7-16.7c0-9.2,7.5-16.7,16.7-16.7c9.2,0,16.7,7.5,16.7,16.7
	C433.3,167,425.8,174.4,416.6,174.4z M416.6,144.5c-7.3,0-13.3,6-13.3,13.3c0,7.3,6,13.3,13.3,13.3c7.3,0,13.3-6,13.3-13.3
	C429.8,150.4,423.9,144.5,416.6,144.5z M69.6,173.7v-28.6h12v-3.4H54.2v3.4h12v28.6H69.6z M160.7,174.4c7.6,0,12.3-4.1,14.1-10.4
	l-3.4-0.7c-1.5,5.2-5.5,7.7-10.7,7.7c-6.8,0-12.2-4.7-12.2-13.3c0-8.2,5-13.3,12.1-13.3c5.3,0,8.6,2.4,10.2,7.2l3.3-0.9
	c-2.2-5.9-5.6-9.7-13.4-9.7c-9.2,0-15.6,6.5-15.6,16.6C145.2,167.5,151.6,174.4,160.7,174.4z M201.2,173.7v-15.4h19.4v15.4h3.4v-32
	h-3.4V155h-19.4v-13.2h-3.4v32H201.2z M381.7,173.7v-3.4h-18.4v-28.6h-3.4v32H381.7z M596.7,174.4c7,0,11.7-3.7,11.7-9
	c0-5.5-3.9-7.7-10.5-9.7c-6.4-2-8.7-3.1-8.7-6.6c0-2.7,2.5-4.7,6.7-4.7c3.9,0,6.7,1.6,8.5,5.4l3.1-1.7c-1.7-4.1-5.3-7.2-11.6-7.2
	c-6.3,0-10.6,3.6-10.6,8.5c0,5.6,4.1,7.4,10.9,9.4c6.5,2,8.3,3.6,8.3,6.7c0,3.4-3.1,5.3-7.7,5.3c-4.4,0-7.7-2.1-9.3-6.4l-3.3,1.4
	C586,171.1,590.4,174.4,596.7,174.4z M123.8,145.1v-3.4h-20.5v0h0v32l20.5,0v-3.4h-17.1v-10.7h16.1v-3.4h-16.1v-11.2H123.8z
	 M253,173.7v-24.4l24.5,25.2v-32.7h-3.4v24.5L249.7,141v32.7H253z M318.2,174.4c-9.2,0-16.7-7.5-16.7-16.7c0-9.2,7.5-16.7,16.7-16.7
	s16.7,7.5,16.7,16.7C334.9,167,327.4,174.4,318.2,174.4z M318.2,144.5c-7.3,0-13.3,6-13.3,13.3c0,7.3,6,13.3,13.3,13.3
	c7.3,0,13.3-6,13.3-13.3C331.5,150.4,325.5,144.5,318.2,144.5z M486.7,159.1v-1.7h-13v3.4h9.4c-0.7,6.3-5.1,10.2-12,10.2
	c-7.4,0-13.5-6-13.5-13.3c0-7.3,6.1-13.3,13.5-13.3c4.5,0,8.7,2.2,11.2,5.9l2.9-1.9c-3.2-4.6-8.4-7.4-14.1-7.4
	c-9.4,0-17,7.5-17,16.7c0,9.2,7.6,16.7,17,16.7C480.5,174.4,486.7,168.3,486.7,159.1z M512.6,141.7v32h3.4v-32H512.6z M608.4,3.7
	h-68v11.6h68V3.7z M608.4,98.1h-68v11.6h68V98.1z M591.1,50.9h-50.6v11.6h50.6V50.9z M481.9,3.7v82.7L392.4-0.4v110.2H404V27
	l89.6,86.9V3.7H481.9z M186.4,109.7L152,66.9h10.6c19.4,0,30.9-13.8,30.9-31.4S180,3.7,163.4,3.7h-50.7v11.6h50.7
	c10.8,0,18.5,9.6,18.5,20.2c0,10.7-6.9,19.7-17.4,19.7h-36.6l43.5,54.5H186.4z M0,3.7v11.6h54.2v94.4h11.6V3.7H0z M615.5,142.5v5.9
	h-0.8v-5.9h-2.1v-0.8h5v0.8H615.5z M625,148.5h-0.8v-5.6l-2,5.6h-0.9l-2-5.6v5.6h-0.8v-6.7h1.3l2,5.7l2-5.7h1.2V148.5z M563.5,145.1
	v-3.4h-20.5v0h0v32l20.5,0v-3.4h-17.1v-10.7h16.1v-3.4h-16.1v-11.2H563.5z"/>
<path id="purple-uplift_1_" class="st0" d="M338,109.7l-48.7-87.2l-48.7,87.2H227L289.3-0.4l62.3,110.2H338z"/>
</svg>
